<svg width="106" height="101" viewBox="0 0 106 101" fill="none" xmlns="http://www.w3.org/2000/svg">
<path fill-rule="evenodd" clip-rule="evenodd" d="M52.1276 0.222056C51.3417 0.53857 51.4861 1.55037 52.53 3.03464L53.4224 4.30398L52.611 5.97306C51.6788 7.89049 51.6814 8.77581 52.6215 10.2699C53.2892 11.3309 53.2892 11.4718 52.6228 12.5569C52.2406 13.1795 52.0864 13.7437 52.0864 14.5229C52.0864 15.3014 52.2406 15.8656 52.6228 16.4888C53.3179 17.6205 53.3055 17.7627 52.3994 19.0006C51.5664 20.1389 51.4534 20.7509 51.9793 21.2785C52.6012 21.9023 53.3205 21.6992 54.0509 20.6933C55.6293 18.5196 55.7978 17.3709 54.7989 15.5878L54.1855 14.4934L54.7989 13.4436C55.6032 12.0668 55.6136 10.8794 54.8316 9.54122C54.1051 8.29809 54.1078 8.20307 54.9035 6.51499C55.9011 4.39965 55.7854 3.63097 54.1175 1.30266C53.5119 0.457305 52.9005 -0.0826608 52.6542 0.0103932C52.6339 0.0182569 52.3968 0.113274 52.1276 0.222056ZM45.7468 7.43439C45.2111 7.97175 45.2973 8.34527 46.3289 9.96258C47.2082 11.3413 47.2037 11.285 46.5223 12.4796C46.1662 13.1054 45.9807 13.7667 45.9807 14.4134C45.9807 15.0602 46.1662 15.7214 46.5223 16.3473C47.2108 17.5557 47.2082 17.5904 46.3269 18.9036C45.3992 20.285 45.2999 20.7568 45.8356 21.2398C47.7452 22.9607 50.1167 18.169 48.6546 15.5432L48.068 14.4888L48.6546 13.4836C50.1474 10.9292 47.5819 5.59363 45.7468 7.43439ZM59.7046 11.0825C57.91 13.2594 57.6682 14.4541 58.6397 16.344L59.327 17.6808L58.5312 18.8833C57.3547 20.6612 57.5572 21.9528 58.9546 21.5851C60.7897 21.1028 61.9552 17.6802 60.9191 15.8197C60.19 14.5111 60.1972 14.4023 61.1105 13.0425C61.9676 11.7653 62.0924 10.8335 61.4515 10.4894C60.7486 10.112 60.4095 10.2267 59.7046 11.0825ZM39.579 13.6526C39.0472 14.186 39.1406 14.6153 40.0964 16.0268C41.1482 17.5799 41.143 17.4449 40.2048 18.8427C39.3281 20.1474 39.221 21.0504 39.8984 21.4141C41.1894 22.1074 43.2747 19.4895 43.1016 17.3938C42.9082 15.0497 40.6145 12.614 39.579 13.6526ZM32.3123 20.9908C31.8295 21.3008 31.4865 21.7824 31.2265 22.5157L30.8476 23.5878H29.3136C26.2797 23.5878 26.0021 24.3624 27.2636 29.3054C27.7647 31.2667 28.2167 32.9836 28.2697 33.1206C28.3219 33.2575 27.9077 33.6992 27.3492 34.1016C25.8289 35.1966 25.7231 35.5295 25.7231 39.2058C25.7231 43.789 25.9504 44.1206 29.0909 44.1206C31.0651 44.1206 31.1311 44.1553 31.2468 45.2464C31.2781 45.5387 31.3578 45.8716 31.4238 45.9869C31.4905 46.1016 31.7158 46.7366 31.9249 47.3971C32.4665 49.1068 33.645 51.1632 35.0078 52.7746L36.1818 54.1632L28.8374 54.2209L21.493 54.2779L21.1657 54.8631C20.5927 55.888 22.8028 58.6875 25.0652 59.8022L26.2673 60.3946L49.2269 60.4529C76.4801 60.5223 74.5241 60.7478 77.2261 57.2261C79.4572 54.3172 79.1423 54.1691 70.7428 54.1691H64.017L65.2374 52.6947C65.909 51.8834 66.8177 50.5197 67.2567 49.6645L68.0557 48.1088L69.8092 47.7418C77.8148 46.0656 80.7487 43.8827 80.9852 39.4247C81.2341 34.7418 77.2287 31.0341 72.7948 31.8427L71.7332 32.036L72.2539 29.7234C73.1071 25.9384 73.1502 24.8322 72.4727 24.1527L71.9096 23.5878L54.6415 23.5865L37.3734 23.5858L37.0468 22.5524C36.4477 20.6559 34.0592 19.8682 32.3123 20.9908ZM34.8255 22.9764C35.2868 23.439 35.1097 23.5878 34.0997 23.5878C33.1792 23.5878 33.1276 23.5576 33.3452 23.1507C33.6032 22.6664 34.4212 22.5701 34.8255 22.9764ZM30.9495 28.5884C30.9495 32.844 30.504 32.787 29.4247 28.3932C29.1732 27.3722 28.9177 26.3643 28.855 26.1546C28.7583 25.8257 28.8975 25.7719 29.8461 25.7719H30.9495V28.5884ZM70.7578 26.7005C70.6402 27.211 70.488 27.7765 70.42 27.9567C70.3521 28.1369 70.309 28.3499 70.3247 28.4305C70.4017 28.8211 66.4264 46.1291 66.0279 47.139C65.1028 49.483 62.9835 52.2202 61.0713 53.5407L60.1606 54.1691H50.152H40.1434L38.8264 53.196C36.711 51.6337 35.0176 49.2582 34.1056 46.5734C33.176 43.8368 33.0623 44.1206 35.0869 44.1206C38.1136 44.1206 38.3534 43.7602 38.3534 39.2058C38.3534 35.2798 38.3619 35.2988 35.5252 32.9718L33.3452 31.1835V28.4777V25.7719H52.1589H70.9721L70.7578 26.7005ZM36.6659 27.7451C35.9179 28.0465 35.9656 29.4161 36.7345 29.7097C38.7264 30.4692 42.2732 29.8447 42.2732 28.7339C42.2732 28.2038 42.1451 27.903 41.8525 27.7457C41.3396 27.4705 37.348 27.4698 36.6659 27.7451ZM44.7048 27.8683C44.0462 28.3309 44.1416 29.2641 44.8864 29.6442C45.9127 30.1684 67.2679 29.9292 67.6611 29.3892C68.0799 28.8145 68.0499 28.4738 67.5344 27.9567C66.9275 27.3473 45.5639 27.2654 44.7048 27.8683ZM35.1548 35.711L36.1759 36.5845V39.2608V41.9365H32.147H28.1188L28.1312 39.1514L28.1442 36.3663L30.1453 34.8172L32.147 33.2674L33.1407 34.0524C33.6875 34.4843 34.5936 35.2307 35.1548 35.711ZM76.4056 34.7326C79.7766 36.6723 79.6845 41.6946 76.2449 43.46C74.8684 44.1665 69.1761 45.8401 68.9436 45.6068C68.8926 45.5564 69.3708 43.1121 70.0052 40.1763L71.1589 34.8375L71.9056 34.4554C73.1358 33.8257 75.0323 33.943 76.4056 34.7326ZM36.4372 46.3487C36.2831 46.5033 36.1759 47.2471 36.1759 48.1619C36.1759 49.8703 36.3745 50.2373 37.3009 50.2373C38.0855 50.2373 38.3534 49.7084 38.3534 48.1619C38.3534 46.3002 37.3924 45.3912 36.4372 46.3487ZM41.4461 46.3487C41.2919 46.5033 41.1848 47.2471 41.1848 48.1619C41.1848 49.8552 41.3854 50.2373 42.2732 50.2373C43.1617 50.2373 43.3622 49.8552 43.3622 48.1619C43.3622 46.4686 43.1617 46.0865 42.2732 46.0865C41.9622 46.0865 41.5898 46.2045 41.4461 46.3487ZM46.683 46.2313C46.1584 46.4437 46.3197 49.9601 46.862 50.1331C48.0569 50.5131 48.5802 49.903 48.5854 48.1213C48.5913 46.3467 47.9563 45.7163 46.683 46.2313ZM51.6807 46.3487C51.5266 46.5033 51.4194 47.2471 51.4194 48.1619C51.4194 49.8552 51.62 50.2373 52.5085 50.2373C53.397 50.2373 53.5975 49.8552 53.5975 48.1619C53.5975 46.4686 53.397 46.0865 52.5085 46.0865C52.1968 46.0865 51.8245 46.2045 51.6807 46.3487ZM56.6406 46.6468C56.0565 48.1888 56.523 50.2386 57.4572 50.234C58.5561 50.2274 58.7148 49.966 58.7148 48.1619C58.7148 46.3578 58.5561 46.0964 57.4572 46.0898C57.0071 46.0878 56.7987 46.23 56.6406 46.6468ZM61.916 46.3487C61.7618 46.5033 61.6547 47.2471 61.6547 48.1619C61.6547 49.8552 61.8553 50.2373 62.7437 50.2373C63.6316 50.2373 63.8321 49.8552 63.8321 48.1619C63.8321 46.4686 63.6316 46.0865 62.7437 46.0865C62.4321 46.0865 62.0597 46.2045 61.916 46.3487ZM74.236 57.0905C72.8078 58.3572 73.5716 58.3192 49.6522 58.3179C25.8303 58.3166 26.4313 58.3461 25.1038 57.1075L24.3074 56.3651L49.6777 56.3683L75.0474 56.3716L74.236 57.0905ZM65.5745 79.0709V79.9444H66.4453C67.8558 79.9444 68.1871 80.4536 68.1897 82.62C68.1903 83.6115 68.2556 84.9628 68.3334 85.624L68.4752 86.8252L67.8911 86.1325C66.1148 84.0263 62.0735 83.9307 60.0044 85.9457C57.0685 88.8036 57.241 97.2852 60.286 99.8042C62.3949 101.549 66.1749 101.294 67.931 99.2872C68.3262 98.8357 68.6796 98.5008 68.7156 98.5434C68.7522 98.586 68.9253 99.0631 69.101 99.6037L69.4211 100.587L72.3976 100.648L75.374 100.708V99.8285C75.374 98.9923 75.3407 98.9484 74.7063 98.9484C72.7804 98.9484 72.7608 98.8337 72.7608 87.6666V78.1967H69.1677H65.5745V79.0709ZM95.6264 79.0709C95.6264 79.9215 95.646 79.9444 96.3803 79.9444C98.0468 79.9444 98.022 79.799 98.022 89.4497V97.9982L97.5177 98.4733C97.2178 98.7557 96.7324 98.9484 96.3202 98.9484C95.6558 98.9484 95.6264 98.9858 95.6264 99.8219V100.696H100.417H105.208V99.8219C105.208 98.993 105.174 98.9484 104.541 98.9484C102.635 98.9484 102.598 98.7308 102.596 87.5349L102.595 78.1967H99.1104H95.6264V79.0709ZM0.067947 80.5453C0.134584 81.356 0.146341 81.3651 1.16549 81.4307C2.90262 81.5427 2.85754 81.3075 2.85754 90.2112C2.85754 99.1935 2.90654 98.9484 1.10277 98.9484H0.0267844V99.8219V100.696H5.59291H11.159L11.0911 99.877L11.0238 99.0578L9.66821 98.993C7.70766 98.8986 7.6482 98.7708 7.6482 94.6404V91.3029H11.1329H14.617V90.4294V89.5558H11.1329H7.6482V85.624V81.6921H10.2758C13.6893 81.6921 14.3994 82.1607 14.3994 84.4156V85.1869H15.6276H16.8565L16.7167 83.8442C16.6396 83.1056 16.5769 81.8769 16.5769 81.1135V79.7262H8.28844H0L0.067947 80.5453ZM23.6175 84.9241C17.7731 87.01 17.4941 97.7276 23.219 100.287C24.3152 100.777 28.9903 101.241 28.9896 100.86C28.9896 100.77 29.1608 100.693 29.3705 100.691C34.1533 100.631 36.4947 91.1043 32.7931 86.7668C31.0678 84.7446 26.6227 83.852 23.6175 84.9241ZM42.999 84.9241C37.1539 87.01 36.8756 97.7276 42.5998 100.287C43.6967 100.777 48.3711 101.241 48.3711 100.86C48.3711 100.77 48.5423 100.693 48.752 100.691C53.5348 100.631 55.8762 91.1043 52.1746 86.7668C50.4493 84.7446 46.0035 83.852 42.999 84.9241ZM83.0666 84.8461C79.1344 86.0794 77.1791 91.8684 79.0377 96.7721C79.1501 97.0683 79.2697 97.4084 79.3043 97.5283C80.5011 101.695 91.9241 102.097 91.9241 97.9726C91.9241 96.2538 91.3662 95.9543 90.3425 97.124C87.7671 100.066 83.6951 98.5428 83.277 94.4805L83.1529 93.2688H88.0063H92.8596L92.7303 91.2649C92.3906 86.0008 88.2186 83.2301 83.0666 84.8461ZM28.4082 87.1496C30.5824 89.0644 30.2564 97.4654 27.9607 98.6981C25.4892 100.024 24.0898 97.9032 24.0898 92.8324C24.0898 87.2413 25.8629 84.9077 28.4082 87.1496ZM47.7897 87.1496C49.9632 89.0644 49.6379 97.4654 47.3415 98.6981C44.8707 100.024 43.4713 97.9032 43.4713 92.8324C43.4713 87.2413 45.2444 84.9077 47.7897 87.1496ZM86.8721 87.0408C87.5712 87.6299 88.0043 88.9235 88.0043 90.4169V91.3029H85.5792H83.1535L83.2992 90.0598C83.6331 87.2112 85.3532 85.7583 86.8721 87.0408ZM66.8158 87.4484C68.5686 88.9733 68.6613 96.2295 66.9497 97.9464C65.7973 99.1024 64.0484 98.6575 63.1619 96.9825C62.7627 96.2282 62.6124 90.9248 62.9476 89.4222C63.4977 86.9575 65.2328 86.0722 66.8158 87.4484Z" fill="#E1E6E2"/>
</svg>
